<?xml version="1.0" encoding="UTF-8"?>
<!DOCTYPE svg PUBLIC "-//W3C//DTD SVG 1.1//EN" "http://www.w3.org/Graphics/SVG/1.1/DTD/svg11.dtd">
<svg xmlns="http://www.w3.org/2000/svg" version="1.1" width="534px" height="534px" style="shape-rendering:geometricPrecision; text-rendering:geometricPrecision; image-rendering:optimizeQuality; fill-rule:evenodd; clip-rule:evenodd" xmlns:xlink="http://www.w3.org/1999/xlink">
<g><path style="opacity:0.981" fill="#135741" d="M 242.5,-0.5 C 258.5,-0.5 274.5,-0.5 290.5,-0.5C 392.529,12.5775 466.029,65.2442 511,157.5C 523.068,185.442 530.568,214.442 533.5,244.5C 533.5,259.5 533.5,274.5 533.5,289.5C 521.498,388.974 471.165,461.807 382.5,508C 353.447,521.524 323.114,530.024 291.5,533.5C 274.833,533.5 258.167,533.5 241.5,533.5C 155.04,523.149 87.8729,481.816 40,409.5C 17.1947,372.583 3.69466,332.583 -0.5,289.5C -0.5,274.167 -0.5,258.833 -0.5,243.5C 11.36,145.9 60.36,73.7332 146.5,27C 177.008,12.2145 209.008,3.04781 242.5,-0.5 Z"/></g>
<g><path style="opacity:1" fill="#f6f8f7" d="M 240.5,11.5 C 338.059,5.71086 416.225,41.3775 475,118.5C 526.378,195.236 535.712,276.902 503,363.5C 463.599,451.215 396.433,503.381 301.5,520C 204.032,529.864 124.532,497.031 63,421.5C 15.8633,356.367 0.863299,284.367 18,205.5C 44.1103,112.723 102.944,51.2225 194.5,21C 209.738,16.7198 225.072,13.5532 240.5,11.5 Z"/></g>
<g><path style="opacity:1" fill="#145841" d="M 243.5,18.5 C 350.256,14.1131 430.756,57.4465 485,148.5C 519.905,216.723 523.905,286.723 497,358.5C 462.018,439.475 401.518,489.975 315.5,510C 215.942,526.267 134.109,495.767 70,418.5C 24.7267,356.721 9.39333,288.055 24,212.5C 47.9115,121.254 104.411,60.0877 193.5,29C 210.095,24.5155 226.762,21.0155 243.5,18.5 Z"/></g>
<g><path style="opacity:1" fill="#f0f4f3" d="M 268.5,67.5 C 268.5,68.5 268.5,69.5 268.5,70.5C 264.5,70.5 260.5,70.5 256.5,70.5C 256.5,69.5 256.5,68.5 256.5,67.5C 257.822,67.67 258.989,67.3366 260,66.5C 260.857,58.1714 261.191,49.838 261,41.5C 258.828,40.4911 257.662,38.8244 257.5,36.5C 260.518,36.3354 263.518,36.502 266.5,37C 271.21,44.253 276.043,51.4197 281,58.5C 281.926,52.8463 282.259,47.1797 282,41.5C 280.89,39.9632 279.39,39.2965 277.5,39.5C 277.5,38.5 277.5,37.5 277.5,36.5C 281.833,36.5 286.167,36.5 290.5,36.5C 290.5,37.8333 290.5,39.1667 290.5,40.5C 288.833,40.5 287.167,40.5 285.5,40.5C 285.5,50.8333 285.5,61.1667 285.5,71.5C 284.022,71.762 282.689,71.4287 281.5,70.5C 276.196,62.0311 270.696,53.6978 265,45.5C 264.5,52.8258 264.334,60.1591 264.5,67.5C 265.833,67.5 267.167,67.5 268.5,67.5 Z"/></g>
<g><path style="opacity:1" fill="#eff4f2" d="M 235.5,37.5 C 238.833,37.5 242.167,37.5 245.5,37.5C 245.5,38.5 245.5,39.5 245.5,40.5C 244.5,40.5 243.5,40.5 242.5,40.5C 243.995,48.791 244.828,57.1243 245,65.5C 244.167,70.3333 241.333,73.1667 236.5,74C 231.563,75.3694 227.396,74.2027 224,70.5C 221.32,63.4171 219.653,56.0838 219,48.5C 218.072,45.9648 216.238,44.9648 213.5,45.5C 213.5,44.1667 213.5,42.8333 213.5,41.5C 218.484,40.7249 223.484,40.0582 228.5,39.5C 227.231,41.8253 225.898,44.1586 224.5,46.5C 225.451,52.8755 226.618,59.2089 228,65.5C 230.053,69.2916 233.219,70.4582 237.5,69C 239.333,68.5 240.5,67.3333 241,65.5C 241.433,58.0879 240.766,50.7546 239,43.5C 237.556,41.8446 235.722,41.178 233.5,41.5C 233.527,39.8007 234.194,38.4674 235.5,37.5 Z"/></g>
<g><path style="opacity:1" fill="#f0f5f3" d="M 300.5,39.5 C 304.853,39.7646 309.187,40.2646 313.5,41C 314.973,41.7096 315.64,42.8762 315.5,44.5C 310.644,44.1645 308.477,46.4978 309,51.5C 307.348,58.0927 306.682,64.7594 307,71.5C 308.706,72.3079 309.539,73.6412 309.5,75.5C 304.798,75.0496 300.132,74.383 295.5,73.5C 295.5,72.1667 295.5,70.8333 295.5,69.5C 297.144,69.7135 298.644,69.3802 300,68.5C 301.593,61.0172 303.093,53.5172 304.5,46C 304.576,43.2439 303.243,42.0772 300.5,42.5C 300.5,41.5 300.5,40.5 300.5,39.5 Z"/></g>
<g><path style="opacity:1" fill="#f2f6f5" d="M 334.5,50.5 C 333.181,57.6769 333.181,65.0102 334.5,72.5C 335.107,72.3764 335.44,72.0431 335.5,71.5C 339.282,65.8782 343.282,60.3782 347.5,55C 345.137,54.4115 344.137,52.9115 344.5,50.5C 348.5,51.5 352.5,52.5 356.5,53.5C 356.5,54.5 356.5,55.5 356.5,56.5C 354.801,56.3398 353.134,56.5065 351.5,57C 344.593,64.7379 338.26,72.9045 332.5,81.5C 331.635,82.5827 330.635,82.7494 329.5,82C 328.678,70.9095 328.178,59.7429 328,48.5C 325.739,47.2285 325.239,45.5618 326.5,43.5C 330.6,45.6447 334.933,46.9781 339.5,47.5C 339.504,51.3304 337.838,52.3304 334.5,50.5 Z"/></g>
<g><path style="opacity:1" fill="#f1f5f4" d="M 181.5,51.5 C 183.346,51.2222 184.68,51.8888 185.5,53.5C 183.988,54.2494 182.988,55.416 182.5,57C 186.841,66.0154 191.175,75.0154 195.5,84C 194.407,85.3654 193.074,85.6987 191.5,85C 182.972,79.7415 174.306,75.0748 165.5,71C 168.628,76.755 171.628,82.5884 174.5,88.5C 176.326,88.9202 178.326,88.9202 180.5,88.5C 180.719,89.675 180.386,90.675 179.5,91.5C 176.254,93.0392 173.088,94.7059 170,96.5C 169.308,95.9747 168.808,95.3081 168.5,94.5C 170.902,91.7 171.068,88.7 169,85.5C 166.333,80.1667 163.667,74.8333 161,69.5C 159.556,67.8446 157.722,67.178 155.5,67.5C 156.115,64.0665 158.281,62.0665 162,61.5C 169.737,65.9531 177.57,70.2864 185.5,74.5C 185.833,74.1667 186.167,73.8333 186.5,73.5C 184.167,68.8333 181.833,64.1667 179.5,59.5C 177.034,58.8765 174.701,58.0432 172.5,57C 175.564,55.1412 178.564,53.3079 181.5,51.5 Z"/></g>
<g><path style="opacity:1" fill="#f1f5f3" d="M 365.5,59.5 C 371.8,61.6165 377.8,64.4498 383.5,68C 385.327,68.8993 386.66,70.2326 387.5,72C 383.646,81.7937 381.479,81.627 381,71.5C 378.851,69.3391 376.351,68.1724 373.5,68C 371.455,70.5864 369.789,73.4198 368.5,76.5C 369.436,77.9744 370.77,78.9744 372.5,79.5C 373.833,78.5 375.167,77.5 376.5,76.5C 377.5,76.8333 378.167,77.5 378.5,78.5C 376.784,82.8532 374.118,86.1865 370.5,88.5C 371.427,84.5546 370.094,81.8879 366.5,80.5C 364.5,83.8333 362.5,87.1667 360.5,90.5C 363.269,92.6061 366.269,94.2728 369.5,95.5C 371.16,94.2134 372.826,92.8801 374.5,91.5C 376.39,91.8688 377.224,92.8688 377,94.5C 375.638,97.2356 373.804,99.5689 371.5,101.5C 364.004,97.5864 356.671,93.4197 349.5,89C 350.047,88.0754 350.713,87.2421 351.5,86.5C 353.042,87.7468 354.542,87.7468 356,86.5C 359.968,79.397 363.801,72.2303 367.5,65C 366.144,63.4329 365.477,61.5996 365.5,59.5 Z"/></g>
<g><path style="opacity:1" fill="#8eafa4" d="M 334.5,50.5 C 334.175,57.6866 334.509,64.6866 335.5,71.5C 335.44,72.0431 335.107,72.3764 334.5,72.5C 333.181,65.0102 333.181,57.6769 334.5,50.5 Z"/></g>
<g><path style="opacity:1" fill="#79a093" d="M 268.5,67.5 C 269.434,68.5676 269.768,69.901 269.5,71.5C 264.968,71.8182 260.634,71.4849 256.5,70.5C 260.5,70.5 264.5,70.5 268.5,70.5C 268.5,69.5 268.5,68.5 268.5,67.5 Z"/></g>
<g><path style="opacity:1" fill="#f1f5f4" d="M 133.5,78.5 C 142.313,84.4116 150.98,90.5782 159.5,97C 160.899,97.5946 162.232,97.4279 163.5,96.5C 164.5,96.8333 165.167,97.5 165.5,98.5C 162.048,101.399 158.382,104.066 154.5,106.5C 153.5,106.167 152.833,105.5 152.5,104.5C 154.98,103.585 155.647,102.085 154.5,100C 152.089,97.3016 149.423,96.9683 146.5,99C 144.792,100.51 143.126,102.01 141.5,103.5C 142.123,105.711 143.123,107.711 144.5,109.5C 146.343,108.061 148.01,108.228 149.5,110C 146.424,112.62 143.258,115.12 140,117.5C 139.13,116.892 138.63,116.059 138.5,115C 139.394,113.604 140.061,112.104 140.5,110.5C 137.345,100.88 134.345,91.2133 131.5,81.5C 131.942,80.2613 132.609,79.2613 133.5,78.5 Z"/></g>
<g><path style="opacity:1" fill="#eff4f2" d="M 398.5,78.5 C 404.058,81.8783 409.224,85.8783 414,90.5C 417.977,99.8645 414.81,104.865 404.5,105.5C 403.68,109.796 402.346,113.963 400.5,118C 400.95,119.285 401.617,120.452 402.5,121.5C 402.113,122.72 401.28,123.387 400,123.5C 397.284,122.285 395.451,120.285 394.5,117.5C 396.309,113.383 397.976,109.216 399.5,105C 399.255,101.745 397.588,100.412 394.5,101C 392.548,103.074 390.715,105.241 389,107.5C 388.885,109.107 389.385,110.607 390.5,112C 390.37,113.059 389.87,113.892 389,114.5C 385.167,111.333 381.333,108.167 377.5,105C 378.108,104.13 378.941,103.63 380,103.5C 381.465,104.33 382.965,104.496 384.5,104C 389.899,97.6054 394.899,90.9387 399.5,84C 397.714,82.3172 397.381,80.4839 398.5,78.5 Z"/></g>
<g><path style="opacity:1" fill="#1c5d47" d="M 404.5,87.5 C 409.542,89.047 411.375,92.3803 410,97.5C 405.763,101.497 401.597,101.33 397.5,97C 400.051,93.9556 402.384,90.7889 404.5,87.5 Z"/></g>
<g><path style="opacity:1" fill="#27644e" d="M 136.5,87.5 C 139.797,89.7829 143.131,92.1162 146.5,94.5C 144.771,96.4513 142.771,97.618 140.5,98C 139.067,94.5321 137.733,91.0321 136.5,87.5 Z"/></g>
<g><path style="opacity:1" fill="#fbfcfc" d="M 453.5,365.5 C 461.833,366.167 470.167,366.833 478.5,367.5C 468.369,378.132 458.035,388.632 447.5,399C 425.833,399.333 404.167,399.667 382.5,400C 348.934,429.182 309.767,443.682 265,443.5C 221.472,443.052 183.306,428.718 150.5,400.5C 128.841,399.667 107.174,399.167 85.5,399C 74.8333,388.333 64.1667,377.667 53.5,367C 62.1603,366.5 70.8269,366.334 79.5,366.5C 79.6666,341.498 79.5,316.498 79,291.5C 72.5048,287.338 67.8382,281.672 65,274.5C 60.9117,263.821 58.5784,252.821 58,241.5C 66.6677,250.418 77.1677,255.418 89.5,256.5C 94.7338,196.169 122.4,149.336 172.5,116C 223.541,85.8512 276.874,81.1845 332.5,102C 399.246,131.948 436.246,183.448 443.5,256.5C 455.853,255.407 466.353,250.407 475,241.5C 474.424,256.467 470.424,270.467 463,283.5C 460.297,286.538 457.297,289.205 454,291.5C 453.5,316.164 453.333,340.831 453.5,365.5 Z"/></g>
<g><path style="opacity:1" fill="#f1f5f4" d="M 109.5,97.5 C 110.5,97.5 111.5,97.5 112.5,97.5C 111.986,99.5116 111.82,101.512 112,103.5C 117.531,109.366 123.365,114.866 129.5,120C 131.367,120.711 132.867,120.211 134,118.5C 134.87,119.108 135.37,119.941 135.5,121C 133.033,124.634 130.033,127.801 126.5,130.5C 125.5,130.167 124.833,129.5 124.5,128.5C 125.485,126.902 125.651,125.235 125,123.5C 122.555,122.023 120.388,120.19 118.5,118C 116.613,117.837 115.113,118.671 114,120.5C 112.71,122.792 111.043,124.792 109,126.5C 110.487,130.496 113.32,133.496 117.5,135.5C 119.332,133.043 120.999,133.043 122.5,135.5C 119.5,139.167 116.167,142.5 112.5,145.5C 111.5,145.167 110.833,144.5 110.5,143.5C 111.485,141.902 111.651,140.235 111,138.5C 105.802,132.967 100.302,127.8 94.5,123C 92.5355,122.376 90.8689,122.876 89.5,124.5C 88.5,124.167 87.8333,123.5 87.5,122.5C 90.5829,118.75 93.9163,115.417 97.5,112.5C 98.1667,112.833 98.8333,113.167 99.5,113.5C 97.876,114.869 97.376,116.536 98,118.5C 100.067,121.07 102.567,123.07 105.5,124.5C 109.805,121.728 112.638,118.061 114,113.5C 111.933,110.93 109.433,108.93 106.5,107.5C 104.668,109.957 103.001,109.957 101.5,107.5C 104.57,104.436 107.237,101.103 109.5,97.5 Z"/></g>
<g><path style="opacity:1" fill="#f1f5f3" d="M 426.5,108.5 C 435.702,108.21 440.536,112.544 441,121.5C 438.915,125.674 436.415,126.174 433.5,123C 438.453,116.142 436.786,112.976 428.5,113.5C 427.104,114.852 426.437,116.519 426.5,118.5C 428.255,123.717 428.755,129.05 428,134.5C 421.846,142.423 415.512,142.423 409,134.5C 407.697,132.06 406.53,129.56 405.5,127C 406.868,125.127 408.534,123.46 410.5,122C 412.201,121.655 413.534,122.322 414.5,124C 409.167,131.667 411.167,135.333 420.5,135C 422.007,133.527 422.674,131.693 422.5,129.5C 420.929,124.599 420.429,119.599 421,114.5C 422.36,111.977 424.193,109.977 426.5,108.5 Z"/></g>
<g><path style="opacity:1" fill="#f0f4f2" d="M 449.5,129.5 C 450.496,129.414 451.329,129.748 452,130.5C 454.112,134.278 456.612,137.778 459.5,141C 457.27,142.829 455.103,142.662 453,140.5C 446.175,144.915 439.509,149.581 433,154.5C 432.28,156.112 432.446,157.612 433.5,159C 432.892,159.87 432.059,160.37 431,160.5C 427.403,156.943 424.736,152.943 423,148.5C 423.414,148.043 423.914,147.709 424.5,147.5C 425.869,149.124 427.536,149.624 429.5,149C 436.261,144.87 442.761,140.37 449,135.5C 448.744,133.398 448.911,131.398 449.5,129.5 Z"/></g>
<g><path style="opacity:1" fill="#f1f5f3" d="M 79.5,132.5 C 80.5,132.5 81.5,132.5 82.5,132.5C 81.8617,134.46 81.8617,136.293 82.5,138C 89.5511,141.72 96.0511,146.22 102,151.5C 105.776,161.615 102.443,167.949 92,170.5C 84.7103,167.938 77.8769,164.438 71.5,160C 68.7234,159.949 66.0567,159.782 63.5,159.5C 65.6837,155.119 68.3504,151.119 71.5,147.5C 72.3081,147.808 72.9747,148.308 73.5,149C 72.7069,150.085 72.0402,151.252 71.5,152.5C 78.039,157.387 85.039,161.387 92.5,164.5C 96.687,163.811 99.0203,161.311 99.5,157C 99.2971,154.594 98.2971,152.594 96.5,151C 91.8333,148 87.1667,145 82.5,142C 79.6677,141.674 77.001,142.174 74.5,143.5C 75.3579,139.452 77.0245,135.785 79.5,132.5 Z"/></g>
<g><path style="opacity:1" fill="#0e2c5a" d="M 264.5,133.5 C 266.722,133.178 268.556,133.845 270,135.5C 270.059,138.822 271.226,141.656 273.5,144C 272.426,144.739 271.759,145.739 271.5,147C 272.072,149.291 272.406,151.625 272.5,154C 272.143,158.23 271.477,162.396 270.5,166.5C 267.833,166.5 265.167,166.5 262.5,166.5C 261.523,162.396 260.857,158.23 260.5,154C 260.594,151.625 260.928,149.291 261.5,147C 261.241,145.739 260.574,144.739 259.5,144C 261.592,140.665 263.259,137.165 264.5,133.5 Z"/></g>
<g><path style="opacity:1" fill="#f2f6f4" d="M 463.5,150.5 C 464.496,150.414 465.329,150.748 466,151.5C 469.833,159.167 473.667,166.833 477.5,174.5C 474.632,176.601 471.632,178.101 468.5,179C 467.483,177.951 467.316,176.784 468,175.5C 472.658,172.809 472.658,170.142 468,167.5C 460.614,170.776 453.448,174.443 446.5,178.5C 445.769,180.401 445.769,182.401 446.5,184.5C 445.178,184.67 444.011,184.337 443,183.5C 440.597,179.365 438.763,175.032 437.5,170.5C 439.685,170.888 441.518,171.888 443,173.5C 451.182,169.992 459.016,165.825 466.5,161C 465.207,157.01 462.707,155.844 459,157.5C 457.5,157.333 456.667,156.5 456.5,155C 458.691,153.222 461.024,151.722 463.5,150.5 Z"/></g>
<g><path style="opacity:1" fill="#012655" d="M 226.5,166.5 C 229.833,166.5 233.167,166.5 236.5,166.5C 236.5,168.167 236.5,169.833 236.5,171.5C 246.568,171.828 256.568,171.161 266.5,169.5C 276.432,171.161 286.432,171.828 296.5,171.5C 296.5,169.833 296.5,168.167 296.5,166.5C 299.5,166.5 302.5,166.5 305.5,166.5C 305.666,170.514 305.499,174.514 305,178.5C 299.514,192.119 304.348,197.952 319.5,196C 326.729,194.103 332.229,189.936 336,183.5C 336.846,190.203 336.013,196.703 333.5,203C 334.476,207.976 337.476,210.976 342.5,212C 352.044,213.656 360.544,211.489 368,205.5C 366.008,212.941 361.841,219.108 355.5,224C 352.408,225.864 349.074,227.031 345.5,227.5C 337.616,224.559 329.949,221.059 322.5,217C 285.167,216.333 247.833,216.333 210.5,217C 203.621,220.606 196.621,223.939 189.5,227C 185.091,227.805 181.091,226.805 177.5,224C 171.159,219.108 166.992,212.941 165,205.5C 174.705,213.376 185.205,214.543 196.5,209C 198.297,207.406 199.297,205.406 199.5,203C 197.232,196.665 196.398,190.165 197,183.5C 205.282,196.21 216.115,199.21 229.5,192.5C 230.833,188.167 230.833,183.833 229.5,179.5C 228.522,179.023 227.689,178.357 227,177.5C 226.501,173.848 226.335,170.182 226.5,166.5 Z"/></g>
<g><path style="opacity:1" fill="#f0f4f3" d="M 86.5,194.5 C 77.8269,194.334 69.1603,194.5 60.5,195C 61.0442,195.717 61.7109,196.217 62.5,196.5C 67.4709,199.99 72.4709,203.49 77.5,207C 79.607,208.264 80.607,210.097 80.5,212.5C 69.5142,211.547 58.5142,211.381 47.5,212C 46.4104,214.97 44.7438,215.303 42.5,213C 44.3346,208.996 45.6679,204.83 46.5,200.5C 47.5,200.5 48.5,200.5 49.5,200.5C 49.5,202.167 49.5,203.833 49.5,205.5C 56.1776,205.881 62.8443,206.048 69.5,206C 64.8333,202.667 60.1667,199.333 55.5,196C 53.1489,196.14 50.8155,196.64 48.5,197.5C 49.3559,193.43 50.5226,189.43 52,185.5C 53.0113,184.663 54.1779,184.33 55.5,184.5C 55.5,186.167 55.5,187.833 55.5,189.5C 61.8421,189.666 68.1754,189.5 74.5,189C 69.4198,185.376 64.2532,181.876 59,178.5C 58.0922,180.439 56.5922,181.439 54.5,181.5C 54.5608,177.154 55.7274,173.154 58,169.5C 59.8701,171.248 61.0368,173.415 61.5,176C 68.8333,180.667 76.1667,185.333 83.5,190C 85.4386,190.908 86.4386,192.408 86.5,194.5 Z"/></g>
<g><path style="opacity:1" fill="#eef3f1" d="M 478.5,184.5 C 479.822,184.33 480.989,184.663 482,185.5C 483.446,189.814 484.446,194.147 485,198.5C 484.586,198.957 484.086,199.291 483.5,199.5C 482.5,198.167 481.5,196.833 480.5,195.5C 477.167,198.5 473.833,201.5 470.5,204.5C 474.749,205.726 479.083,206.393 483.5,206.5C 483.5,205.167 483.5,203.833 483.5,202.5C 484.822,202.33 485.989,202.663 487,203.5C 488.372,206.618 489.538,209.784 490.5,213C 489.437,214.188 488.103,214.688 486.5,214.5C 486.863,212.089 485.863,210.589 483.5,210C 477.753,209.692 472.086,208.859 466.5,207.5C 463.803,208.232 461.136,209.066 458.5,210C 458.05,212.501 457.05,214.667 455.5,216.5C 453.215,211.361 451.549,206.028 450.5,200.5C 452.874,201.214 454.874,202.548 456.5,204.5C 459.197,203.768 461.864,202.934 464.5,202C 468.982,198.353 473.315,194.519 477.5,190.5C 478.348,188.591 478.682,186.591 478.5,184.5 Z"/></g>
<g><path style="opacity:1" fill="#92b2a8" d="M 86.5,194.5 C 78.5,195.167 70.5,195.833 62.5,196.5C 61.7109,196.217 61.0442,195.717 60.5,195C 69.1603,194.5 77.8269,194.334 86.5,194.5 Z"/></g>
<g><path style="opacity:1" fill="#435e80" d="M 215.5,224.5 C 220.975,223.511 226.642,223.178 232.5,223.5C 232.795,225.735 232.461,227.735 231.5,229.5C 231.5,227.833 231.5,226.167 231.5,224.5C 226.167,224.5 220.833,224.5 215.5,224.5 Z"/></g>
<g><path style="opacity:1" fill="#3f5b7e" d="M 253.5,224.5 C 248.167,224.5 242.833,224.5 237.5,224.5C 237.5,226.167 237.5,227.833 237.5,229.5C 236.539,227.735 236.205,225.735 236.5,223.5C 242.358,223.178 248.025,223.511 253.5,224.5 Z"/></g>
<g><path style="opacity:1" fill="#435e80" d="M 279.5,224.5 C 284.975,223.511 290.642,223.178 296.5,223.5C 296.795,225.735 296.461,227.735 295.5,229.5C 295.5,227.833 295.5,226.167 295.5,224.5C 290.167,224.5 284.833,224.5 279.5,224.5 Z"/></g>
<g><path style="opacity:1" fill="#3f5b7e" d="M 317.5,224.5 C 312.167,224.5 306.833,224.5 301.5,224.5C 301.5,226.167 301.5,227.833 301.5,229.5C 300.539,227.735 300.205,225.735 300.5,223.5C 306.358,223.178 312.025,223.511 317.5,224.5 Z"/></g>
<g><path style="opacity:1" fill="#002554" d="M 215.5,224.5 C 220.833,224.5 226.167,224.5 231.5,224.5C 231.5,226.167 231.5,227.833 231.5,229.5C 226.167,229.5 220.833,229.5 215.5,229.5C 215.5,227.833 215.5,226.167 215.5,224.5 Z"/></g>
<g><path style="opacity:1" fill="#002554" d="M 253.5,224.5 C 253.5,226.167 253.5,227.833 253.5,229.5C 248.167,229.5 242.833,229.5 237.5,229.5C 237.5,227.833 237.5,226.167 237.5,224.5C 242.833,224.5 248.167,224.5 253.5,224.5 Z"/></g>
<g><path style="opacity:1" fill="#0c2b59" d="M 258.5,223.5 C 263.833,223.5 269.167,223.5 274.5,223.5C 274.5,225.5 274.5,227.5 274.5,229.5C 269.167,229.5 263.833,229.5 258.5,229.5C 258.5,227.5 258.5,225.5 258.5,223.5 Z"/></g>
<g><path style="opacity:1" fill="#002554" d="M 279.5,224.5 C 284.833,224.5 290.167,224.5 295.5,224.5C 295.5,226.167 295.5,227.833 295.5,229.5C 290.167,229.5 284.833,229.5 279.5,229.5C 279.5,227.833 279.5,226.167 279.5,224.5 Z"/></g>
<g><path style="opacity:1" fill="#012554" d="M 317.5,224.5 C 317.5,226.167 317.5,227.833 317.5,229.5C 312.167,229.5 306.833,229.5 301.5,229.5C 301.5,227.833 301.5,226.167 301.5,224.5C 306.833,224.5 312.167,224.5 317.5,224.5 Z"/></g>
<g><path style="opacity:1" fill="#17325f" d="M 208.5,225.5 C 209.725,226.152 210.392,227.319 210.5,229C 210.167,230.167 209.833,231.333 209.5,232.5C 205.749,233.973 202.083,235.64 198.5,237.5C 197.359,235.579 197.192,233.579 198,231.5C 201.644,229.599 205.144,227.599 208.5,225.5 Z"/></g>
<g><path style="opacity:1" fill="#193360" d="M 322.5,225.5 C 326.328,227.579 330.328,229.412 334.5,231C 335.423,233.041 335.756,235.208 335.5,237.5C 331.303,236.404 327.303,234.738 323.5,232.5C 322.526,230.257 322.192,227.924 322.5,225.5 Z"/></g>
<g><path style="opacity:1" fill="#052756" d="M 180.5,275.5 C 179.957,275.56 179.624,275.893 179.5,276.5C 182.309,277.8 184.976,277.8 187.5,276.5C 190.112,269.332 192.112,261.998 193.5,254.5C 194.5,254.5 195.5,254.5 196.5,254.5C 196.5,261.833 196.5,269.167 196.5,276.5C 198.265,277.461 200.265,277.795 202.5,277.5C 202.5,269.833 202.5,262.167 202.5,254.5C 205.167,254.5 207.833,254.5 210.5,254.5C 210.5,262.167 210.5,269.833 210.5,277.5C 212.833,277.5 215.167,277.5 217.5,277.5C 217.5,269.833 217.5,262.167 217.5,254.5C 220.167,254.5 222.833,254.5 225.5,254.5C 225.5,262.167 225.5,269.833 225.5,277.5C 227.735,277.795 229.735,277.461 231.5,276.5C 231.5,269.167 231.5,261.833 231.5,254.5C 234.5,254.5 237.5,254.5 240.5,254.5C 240.5,262.167 240.5,269.833 240.5,277.5C 242.833,277.5 245.167,277.5 247.5,277.5C 247.5,269.833 247.5,262.167 247.5,254.5C 250.167,254.5 252.833,254.5 255.5,254.5C 255.5,262.167 255.5,269.833 255.5,277.5C 257.735,277.795 259.735,277.461 261.5,276.5C 261.5,269.167 261.5,261.833 261.5,254.5C 264.5,254.5 267.5,254.5 270.5,254.5C 270.5,262.167 270.5,269.833 270.5,277.5C 272.735,277.795 274.735,277.461 276.5,276.5C 276.5,269.167 276.5,261.833 276.5,254.5C 279.5,254.5 282.5,254.5 285.5,254.5C 285.5,262.167 285.5,269.833 285.5,277.5C 287.735,277.795 289.735,277.461 291.5,276.5C 291.5,269.167 291.5,261.833 291.5,254.5C 294.5,254.5 297.5,254.5 300.5,254.5C 300.5,262.167 300.5,269.833 300.5,277.5C 302.735,277.795 304.735,277.461 306.5,276.5C 306.5,269.167 306.5,261.833 306.5,254.5C 309.5,254.5 312.5,254.5 315.5,254.5C 315.5,262.167 315.5,269.833 315.5,277.5C 317.735,277.795 319.735,277.461 321.5,276.5C 321.5,269.167 321.5,261.833 321.5,254.5C 324.5,254.5 327.5,254.5 330.5,254.5C 330.5,262.167 330.5,269.833 330.5,277.5C 332.735,277.795 334.735,277.461 336.5,276.5C 336.5,269.167 336.5,261.833 336.5,254.5C 337.5,254.5 338.5,254.5 339.5,254.5C 340.302,262.391 342.635,269.724 346.5,276.5C 348.693,277.797 351.027,277.797 353.5,276.5C 353.376,275.893 353.043,275.56 352.5,275.5C 350.574,271.978 348.907,268.312 347.5,264.5C 347.833,264.167 348.167,263.833 348.5,263.5C 357.634,268.129 366.967,268.629 376.5,265C 387.845,255.491 397.178,244.324 404.5,231.5C 409.774,239.283 415.274,246.949 421,254.5C 432.32,268.737 445.987,271.404 462,262.5C 460.149,270.017 456.315,276.517 450.5,282C 449.5,282.333 448.5,282.667 447.5,283C 326.5,283.667 205.5,283.667 84.5,283C 77.111,277.967 72.611,271.134 71,262.5C 86.259,271.046 99.5923,268.712 111,255.5C 117.055,247.778 122.722,239.778 128,231.5C 133,238.5 138,245.5 143,252.5C 147.199,257.034 151.699,261.201 156.5,265C 159.922,266.87 163.589,267.703 167.5,267.5C 173.734,267.108 179.734,265.774 185.5,263.5C 184.389,267.723 182.722,271.723 180.5,275.5 Z"/></g>
<g><path style="opacity:1" fill="#6b819c" d="M 388.5,244.5 C 307.167,243.167 225.833,243.167 144.5,244.5C 143.957,244.44 143.624,244.107 143.5,243.5C 225.5,242.167 307.5,242.167 389.5,243.5C 389.376,244.107 389.043,244.44 388.5,244.5 Z"/></g>
<g><path style="opacity:1" fill="#012554" d="M 388.5,244.5 C 387.375,246.129 386.041,247.629 384.5,249C 305.833,249.667 227.167,249.667 148.5,249C 146.959,247.629 145.625,246.129 144.5,244.5C 225.833,243.167 307.167,243.167 388.5,244.5 Z"/></g>
<g><path style="opacity:1" fill="#102e5b" d="M 157.5,254.5 C 160.5,254.5 163.5,254.5 166.5,254.5C 166.5,256.833 166.5,259.167 166.5,261.5C 163.575,261.54 160.909,260.707 158.5,259C 157.62,257.644 157.286,256.144 157.5,254.5 Z"/></g>
<g><path style="opacity:1" fill="#052957" d="M 172.5,254.5 C 175.5,254.5 178.5,254.5 181.5,254.5C 181.762,255.978 181.429,257.311 180.5,258.5C 177.979,259.785 175.313,260.452 172.5,260.5C 172.5,258.5 172.5,256.5 172.5,254.5 Z"/></g>
<g><path style="opacity:1" fill="#7286a0" d="M 202.5,254.5 C 202.5,262.167 202.5,269.833 202.5,277.5C 200.265,277.795 198.265,277.461 196.5,276.5C 198.167,276.5 199.833,276.5 201.5,276.5C 201.175,268.981 201.508,261.648 202.5,254.5 Z"/></g>
<g><path style="opacity:1" fill="#798ca5" d="M 210.5,254.5 C 211.492,261.648 211.825,268.981 211.5,276.5C 213.167,276.5 214.833,276.5 216.5,276.5C 216.175,268.981 216.508,261.648 217.5,254.5C 217.5,262.167 217.5,269.833 217.5,277.5C 215.167,277.5 212.833,277.5 210.5,277.5C 210.5,269.833 210.5,262.167 210.5,254.5 Z"/></g>
<g><path style="opacity:1" fill="#788ba4" d="M 225.5,254.5 C 226.492,261.648 226.825,268.981 226.5,276.5C 228.167,276.5 229.833,276.5 231.5,276.5C 229.735,277.461 227.735,277.795 225.5,277.5C 225.5,269.833 225.5,262.167 225.5,254.5 Z"/></g>
<g><path style="opacity:1" fill="#70859f" d="M 240.5,254.5 C 241.492,261.648 241.825,268.981 241.5,276.5C 243.167,276.5 244.833,276.5 246.5,276.5C 246.175,268.981 246.508,261.648 247.5,254.5C 247.5,262.167 247.5,269.833 247.5,277.5C 245.167,277.5 242.833,277.5 240.5,277.5C 240.5,269.833 240.5,262.167 240.5,254.5 Z"/></g>
<g><path style="opacity:1" fill="#8293aa" d="M 255.5,254.5 C 256.492,261.648 256.825,268.981 256.5,276.5C 258.167,276.5 259.833,276.5 261.5,276.5C 259.735,277.461 257.735,277.795 255.5,277.5C 255.5,269.833 255.5,262.167 255.5,254.5 Z"/></g>
<g><path style="opacity:1" fill="#7f91a9" d="M 270.5,254.5 C 271.492,261.648 271.825,268.981 271.5,276.5C 273.167,276.5 274.833,276.5 276.5,276.5C 274.735,277.461 272.735,277.795 270.5,277.5C 270.5,269.833 270.5,262.167 270.5,254.5 Z"/></g>
<g><path style="opacity:1" fill="#8b9bb1" d="M 285.5,254.5 C 286.492,261.648 286.825,268.981 286.5,276.5C 288.167,276.5 289.833,276.5 291.5,276.5C 289.735,277.461 287.735,277.795 285.5,277.5C 285.5,269.833 285.5,262.167 285.5,254.5 Z"/></g>
<g><path style="opacity:1" fill="#8898ae" d="M 300.5,254.5 C 301.492,261.648 301.825,268.981 301.5,276.5C 303.167,276.5 304.833,276.5 306.5,276.5C 304.735,277.461 302.735,277.795 300.5,277.5C 300.5,269.833 300.5,262.167 300.5,254.5 Z"/></g>
<g><path style="opacity:1" fill="#8596ad" d="M 315.5,254.5 C 316.492,261.648 316.825,268.981 316.5,276.5C 318.167,276.5 319.833,276.5 321.5,276.5C 319.735,277.461 317.735,277.795 315.5,277.5C 315.5,269.833 315.5,262.167 315.5,254.5 Z"/></g>
<g><path style="opacity:1" fill="#91a0b5" d="M 330.5,254.5 C 331.492,261.648 331.825,268.981 331.5,276.5C 333.167,276.5 334.833,276.5 336.5,276.5C 334.735,277.461 332.735,277.795 330.5,277.5C 330.5,269.833 330.5,262.167 330.5,254.5 Z"/></g>
<g><path style="opacity:1" fill="#0d2c5a" d="M 351.5,254.5 C 354.5,254.5 357.5,254.5 360.5,254.5C 360.5,256.5 360.5,258.5 360.5,260.5C 357.729,260.579 355.063,260.079 352.5,259C 351.62,257.644 351.286,256.144 351.5,254.5 Z"/></g>
<g><path style="opacity:1" fill="#0f2d5b" d="M 366.5,254.5 C 369.5,254.5 372.5,254.5 375.5,254.5C 375.714,256.144 375.38,257.644 374.5,259C 371.978,260.341 369.311,261.174 366.5,261.5C 366.5,259.167 366.5,256.833 366.5,254.5 Z"/></g>
<g><path style="opacity:1" fill="#506989" d="M 180.5,275.5 C 182.607,276.468 184.941,276.802 187.5,276.5C 184.976,277.8 182.309,277.8 179.5,276.5C 179.624,275.893 179.957,275.56 180.5,275.5 Z"/></g>
<g><path style="opacity:1" fill="#58708e" d="M 352.5,275.5 C 353.043,275.56 353.376,275.893 353.5,276.5C 351.027,277.797 348.693,277.797 346.5,276.5C 348.735,276.795 350.735,276.461 352.5,275.5 Z"/></g>
<g><path style="opacity:1" fill="#082957" d="M 260.5,286.5 C 264.5,286.5 268.5,286.5 272.5,286.5C 272.5,287.833 272.5,289.167 272.5,290.5C 299.5,290.5 326.5,290.5 353.5,290.5C 353.5,308.833 353.5,327.167 353.5,345.5C 295.5,345.5 237.5,345.5 179.5,345.5C 179.5,327.167 179.5,308.833 179.5,290.5C 206.5,290.5 233.5,290.5 260.5,290.5C 260.5,289.167 260.5,287.833 260.5,286.5 Z"/></g>
<g><path style="opacity:1" fill="#012554" d="M 88.5,291.5 C 114.833,291.5 141.167,291.5 167.5,291.5C 167.5,316.833 167.5,342.167 167.5,367.5C 141.167,367.5 114.833,367.5 88.5,367.5C 88.5,342.167 88.5,316.833 88.5,291.5 Z"/></g>
<g><path style="opacity:1" fill="#0f325e" d="M 88.5,291.5 C 114.995,290.502 141.661,290.169 168.5,290.5C 168.5,316.5 168.5,342.5 168.5,368.5C 141.661,368.831 114.995,368.498 88.5,367.5C 114.833,367.5 141.167,367.5 167.5,367.5C 167.5,342.167 167.5,316.833 167.5,291.5C 141.167,291.5 114.833,291.5 88.5,291.5 Z"/></g>
<g><path style="opacity:1" fill="#0c2f5c" d="M 444.5,291.5 C 418.167,291.5 391.833,291.5 365.5,291.5C 365.5,316.833 365.5,342.167 365.5,367.5C 391.833,367.5 418.167,367.5 444.5,367.5C 418.005,368.498 391.339,368.831 364.5,368.5C 364.5,342.5 364.5,316.5 364.5,290.5C 391.339,290.169 418.005,290.502 444.5,291.5 Z"/></g>
<g><path style="opacity:1" fill="#012554" d="M 444.5,291.5 C 444.5,316.833 444.5,342.167 444.5,367.5C 418.167,367.5 391.833,367.5 365.5,367.5C 365.5,342.167 365.5,316.833 365.5,291.5C 391.833,291.5 418.167,291.5 444.5,291.5 Z"/></g>
<g><path style="opacity:1" fill="#8596ad" d="M 225.5,297.5 C 215.5,297.5 205.5,297.5 195.5,297.5C 195.5,298.833 195.5,300.167 195.5,301.5C 194.549,300.081 194.216,298.415 194.5,296.5C 205.014,296.172 215.347,296.506 225.5,297.5 Z"/></g>
<g><path style="opacity:1" fill="#798ca4" d="M 260.5,297.5 C 253.5,297.5 246.5,297.5 239.5,297.5C 239.5,298.833 239.5,300.167 239.5,301.5C 238.549,300.081 238.216,298.415 238.5,296.5C 246.019,296.175 253.352,296.508 260.5,297.5 Z"/></g>
<g><path style="opacity:1" fill="#fdfefe" d="M 225.5,297.5 C 225.5,298.833 225.5,300.167 225.5,301.5C 215.5,301.5 205.5,301.5 195.5,301.5C 195.5,300.167 195.5,298.833 195.5,297.5C 205.5,297.5 215.5,297.5 225.5,297.5 Z"/></g>
<g><path style="opacity:1" fill="#e0e4ea" d="M 229.5,296.5 C 231.167,296.5 232.833,296.5 234.5,296.5C 234.5,298.167 234.5,299.833 234.5,301.5C 232.833,301.5 231.167,301.5 229.5,301.5C 229.5,299.833 229.5,298.167 229.5,296.5 Z"/></g>
<g><path style="opacity:1" fill="#fdfdfe" d="M 260.5,297.5 C 260.5,298.833 260.5,300.167 260.5,301.5C 253.5,301.5 246.5,301.5 239.5,301.5C 239.5,300.167 239.5,298.833 239.5,297.5C 246.5,297.5 253.5,297.5 260.5,297.5 Z"/></g>
<g><path style="opacity:1" fill="#e9ebf0" d="M 272.5,296.5 C 279.833,296.5 287.167,296.5 294.5,296.5C 294.5,298.167 294.5,299.833 294.5,301.5C 287.167,301.5 279.833,301.5 272.5,301.5C 272.5,299.833 272.5,298.167 272.5,296.5 Z"/></g>
<g><path style="opacity:1" fill="#e8ebef" d="M 298.5,296.5 C 300.167,296.5 301.833,296.5 303.5,296.5C 303.5,298.167 303.5,299.833 303.5,301.5C 301.833,301.5 300.167,301.5 298.5,301.5C 298.5,299.833 298.5,298.167 298.5,296.5 Z"/></g>
<g><path style="opacity:1" fill="#e7eaee" d="M 307.5,296.5 C 317.833,296.5 328.167,296.5 338.5,296.5C 338.5,298.167 338.5,299.833 338.5,301.5C 328.167,301.5 317.833,301.5 307.5,301.5C 307.5,299.833 307.5,298.167 307.5,296.5 Z"/></g>
<g><path style="opacity:1" fill="#fdfdfd" d="M 115.5,306.5 C 115.5,310.5 115.5,314.5 115.5,318.5C 111.5,318.5 107.5,318.5 103.5,318.5C 103.5,314.5 103.5,310.5 103.5,306.5C 107.5,306.5 111.5,306.5 115.5,306.5 Z"/></g>
<g><path style="opacity:1" fill="#fefefe" d="M 122.5,306.5 C 126.5,306.5 130.5,306.5 134.5,306.5C 134.5,310.5 134.5,314.5 134.5,318.5C 130.5,318.5 126.5,318.5 122.5,318.5C 122.5,314.5 122.5,310.5 122.5,306.5 Z"/></g>
<g><path style="opacity:1" fill="#fbfbfc" d="M 152.5,306.5 C 152.5,310.5 152.5,314.5 152.5,318.5C 148.5,318.5 144.5,318.5 140.5,318.5C 140.5,314.5 140.5,310.5 140.5,306.5C 144.5,306.5 148.5,306.5 152.5,306.5 Z"/></g>
<g><path style="opacity:1" fill="#c5cdd8" d="M 185.5,305.5 C 187.167,305.5 188.833,305.5 190.5,305.5C 190.5,317.167 190.5,328.833 190.5,340.5C 188.833,340.5 187.167,340.5 185.5,340.5C 185.5,328.833 185.5,317.167 185.5,305.5 Z"/></g>
<g><path style="opacity:1" fill="#fefffe" d="M 186.5,306.5 C 187.5,306.5 188.5,306.5 189.5,306.5C 189.5,317.5 189.5,328.5 189.5,339.5C 188.5,339.5 187.5,339.5 186.5,339.5C 186.5,328.5 186.5,317.5 186.5,306.5 Z"/></g>
<g><path style="opacity:1" fill="#fcfcfd" d="M 199.5,306.5 C 206.508,306.334 213.508,306.5 220.5,307C 221.966,307.635 223.3,308.469 224.5,309.5C 225.499,319.478 225.832,329.478 225.5,339.5C 215.167,339.5 204.833,339.5 194.5,339.5C 194.334,329.828 194.5,320.161 195,310.5C 196.667,309.267 198.167,307.933 199.5,306.5 Z"/></g>
<g><path style="opacity:1" fill="#aeb9c8" d="M 230.5,306.5 C 230.5,317.5 230.5,328.5 230.5,339.5C 231.833,339.5 233.167,339.5 234.5,339.5C 233.081,340.451 231.415,340.784 229.5,340.5C 229.172,328.988 229.505,317.654 230.5,306.5 Z"/></g>
<g><path style="opacity:1" fill="#f9f9fb" d="M 230.5,306.5 C 231.833,306.5 233.167,306.5 234.5,306.5C 234.5,317.5 234.5,328.5 234.5,339.5C 233.167,339.5 231.833,339.5 230.5,339.5C 230.5,328.5 230.5,317.5 230.5,306.5 Z"/></g>
<g><path style="opacity:1" fill="#fcfcfd" d="M 282.5,339.5 C 282.5,331.167 282.5,322.833 282.5,314.5C 272.167,314.5 261.833,314.5 251.5,314.5C 250.507,322.65 250.174,330.983 250.5,339.5C 246.833,339.5 243.167,339.5 239.5,339.5C 239.5,329.5 239.5,319.5 239.5,309.5C 240.973,308.928 242.307,308.095 243.5,307C 258.833,306.333 274.167,306.333 289.5,307C 290.665,308.084 291.998,308.917 293.5,309.5C 294.499,319.812 294.832,330.145 294.5,340.5C 290.298,340.817 286.298,340.483 282.5,339.5 Z"/></g>
<g><path style="opacity:1" fill="#d9dee5" d="M 299.5,306.5 C 299.5,317.5 299.5,328.5 299.5,339.5C 300.5,339.5 301.5,339.5 302.5,339.5C 302.5,328.5 302.5,317.5 302.5,306.5C 303.495,317.654 303.828,328.988 303.5,340.5C 301.833,340.5 300.167,340.5 298.5,340.5C 298.172,328.988 298.505,317.654 299.5,306.5 Z"/></g>
<g><path style="opacity:1" fill="#fefffe" d="M 299.5,306.5 C 300.5,306.5 301.5,306.5 302.5,306.5C 302.5,317.5 302.5,328.5 302.5,339.5C 301.5,339.5 300.5,339.5 299.5,339.5C 299.5,328.5 299.5,317.5 299.5,306.5 Z"/></g>
<g><path style="opacity:1" fill="#fcfdfd" d="M 312.5,306.5 C 319.508,306.334 326.508,306.5 333.5,307C 334.966,307.635 336.3,308.469 337.5,309.5C 338.499,319.478 338.832,329.478 338.5,339.5C 328.167,339.5 317.833,339.5 307.5,339.5C 307.168,329.478 307.501,319.478 308.5,309.5C 309.901,308.479 311.235,307.479 312.5,306.5 Z"/></g>
<g><path style="opacity:1" fill="#d5dae2" d="M 343.5,306.5 C 343.5,317.5 343.5,328.5 343.5,339.5C 344.5,339.5 345.5,339.5 346.5,339.5C 346.5,328.5 346.5,317.5 346.5,306.5C 347.495,317.654 347.828,328.988 347.5,340.5C 345.833,340.5 344.167,340.5 342.5,340.5C 342.172,328.988 342.505,317.654 343.5,306.5 Z"/></g>
<g><path style="opacity:1" fill="#fefffe" d="M 343.5,306.5 C 344.5,306.5 345.5,306.5 346.5,306.5C 346.5,317.5 346.5,328.5 346.5,339.5C 345.5,339.5 344.5,339.5 343.5,339.5C 343.5,328.5 343.5,317.5 343.5,306.5 Z"/></g>
<g><path style="opacity:1" fill="#f5f6f8" d="M 379.5,306.5 C 383.833,306.5 388.167,306.5 392.5,306.5C 392.5,310.5 392.5,314.5 392.5,318.5C 388.167,318.5 383.833,318.5 379.5,318.5C 379.5,314.5 379.5,310.5 379.5,306.5 Z"/></g>
<g><path style="opacity:1" fill="#fefefe" d="M 398.5,306.5 C 402.5,306.5 406.5,306.5 410.5,306.5C 410.5,310.5 410.5,314.5 410.5,318.5C 406.5,318.5 402.5,318.5 398.5,318.5C 398.5,314.5 398.5,310.5 398.5,306.5 Z"/></g>
<g><path style="opacity:1" fill="#fcfcfd" d="M 417.5,306.5 C 421.5,306.5 425.5,306.5 429.5,306.5C 429.5,310.5 429.5,314.5 429.5,318.5C 429.5,314.5 429.5,310.5 429.5,306.5C 425.5,306.5 421.5,306.5 417.5,306.5 Z"/></g>
<g><path style="opacity:1" fill="#6e829d" d="M 251.5,315.5 C 251.5,315.167 251.5,314.833 251.5,314.5C 261.833,314.5 272.167,314.5 282.5,314.5C 282.5,322.833 282.5,331.167 282.5,339.5C 281.508,331.684 281.174,323.684 281.5,315.5C 271.5,315.5 261.5,315.5 251.5,315.5 Z"/></g>
<g><path style="opacity:1" fill="#a7b3c3" d="M 239.5,309.5 C 239.5,319.5 239.5,329.5 239.5,339.5C 243.167,339.5 246.833,339.5 250.5,339.5C 250.174,330.983 250.507,322.65 251.5,314.5C 251.5,314.833 251.5,315.167 251.5,315.5C 251.5,323.833 251.5,332.167 251.5,340.5C 247.167,340.5 242.833,340.5 238.5,340.5C 238.172,329.986 238.506,319.653 239.5,309.5 Z"/></g>
<g><path style="opacity:1" fill="#e9ecf0" d="M 279.5,317.5 C 280.13,325.243 279.463,332.576 277.5,339.5C 277.5,332.833 277.5,326.167 277.5,319.5C 270.352,318.508 263.019,318.175 255.5,318.5C 255.5,325.5 255.5,332.5 255.5,339.5C 255.44,340.043 255.107,340.376 254.5,340.5C 253.503,332.862 253.169,325.196 253.5,317.5C 262.167,317.5 270.833,317.5 279.5,317.5 Z"/></g>
<g><path style="opacity:1" fill="#4e6788" d="M 279.5,317.5 C 280.492,324.982 280.825,332.648 280.5,340.5C 279.209,340.737 278.209,340.404 277.5,339.5C 279.463,332.576 280.13,325.243 279.5,317.5 Z"/></g>
<g><path style="opacity:1" fill="#6f839e" d="M 115.5,306.5 C 116.485,310.634 116.818,314.968 116.5,319.5C 111.968,319.818 107.634,319.485 103.5,318.5C 107.5,318.5 111.5,318.5 115.5,318.5C 115.5,314.5 115.5,310.5 115.5,306.5 Z"/></g>
<g><path style="opacity:1" fill="#70849f" d="M 152.5,306.5 C 153.485,310.634 153.818,314.968 153.5,319.5C 148.968,319.818 144.634,319.485 140.5,318.5C 144.5,318.5 148.5,318.5 152.5,318.5C 152.5,314.5 152.5,310.5 152.5,306.5 Z"/></g>
<g><path style="opacity:1" fill="#6e839d" d="M 417.5,306.5 C 417.5,310.5 417.5,314.5 417.5,318.5C 421.5,318.5 425.5,318.5 429.5,318.5C 425.366,319.485 421.032,319.818 416.5,319.5C 416.182,314.968 416.515,310.634 417.5,306.5 Z"/></g>
<g><path style="opacity:1" fill="#395479" d="M 277.5,319.5 C 270.5,319.5 263.5,319.5 256.5,319.5C 256.824,326.354 256.491,333.021 255.5,339.5C 255.5,332.5 255.5,325.5 255.5,318.5C 263.019,318.175 270.352,318.508 277.5,319.5 Z"/></g>
<g><path style="opacity:1" fill="#042856" d="M 185.5,349.5 C 239.504,349.167 293.504,349.5 347.5,350.5C 347.833,351.167 348.167,351.833 348.5,352.5C 293.837,353.5 239.171,353.833 184.5,353.5C 184.433,352.041 184.766,350.708 185.5,349.5 Z"/></g>
<g><path style="opacity:1" fill="#1e3662" d="M 350.5,359.5 C 294.5,360.833 238.5,360.833 182.5,359.5C 182.414,358.504 182.748,357.671 183.5,357C 238.833,356.333 294.167,356.333 349.5,357C 350.252,357.671 350.586,358.504 350.5,359.5 Z"/></g>
<g><path style="opacity:1" fill="#8b9bb1" d="M 182.5,359.5 C 238.5,360.833 294.5,360.833 350.5,359.5C 351.043,359.56 351.376,359.893 351.5,360.5C 294.833,361.833 238.167,361.833 181.5,360.5C 181.624,359.893 181.957,359.56 182.5,359.5 Z"/></g>
<g><path style="opacity:1" fill="#002554" d="M 352.5,366.5 C 324.002,367.167 295.335,367.5 266.5,367.5C 237.492,367.5 208.825,366.833 180.5,365.5C 208.998,364.833 237.665,364.5 266.5,364.5C 295.508,364.5 324.175,365.167 352.5,366.5 Z"/></g>
<g><path style="opacity:1" fill="#86aa9e" d="M 453.5,365.5 C 462.192,365.169 470.859,365.502 479.5,366.5C 479.376,367.107 479.043,367.44 478.5,367.5C 470.167,366.833 461.833,366.167 453.5,365.5 Z"/></g>
<g><path style="opacity:1" fill="#153761" d="M 180.5,365.5 C 208.825,366.833 237.492,367.5 266.5,367.5C 295.335,367.5 324.002,367.167 352.5,366.5C 353.043,366.56 353.376,366.893 353.5,367.5C 295.504,368.5 237.504,368.833 179.5,368.5C 179.263,367.209 179.596,366.209 180.5,365.5 Z"/></g>
<g><path style="opacity:1" fill="#102e5b" d="M 70.5,374.5 C 200.999,373.334 331.666,373.167 462.5,374C 459.833,376.667 457.167,379.333 454.5,382C 329.167,382.667 203.833,382.667 78.5,382C 75.9638,379.295 73.2971,376.795 70.5,374.5 Z"/></g>
<g><path style="opacity:1" fill="#204069" d="M 449.5,386.5 C 327.5,385.167 205.5,385.167 83.5,386.5C 82.7109,386.217 82.0442,385.717 81.5,385C 204.833,384.333 328.167,384.333 451.5,385C 450.956,385.717 450.289,386.217 449.5,386.5 Z"/></g>
<g><path style="opacity:1" fill="#0e2c5a" d="M 449.5,386.5 C 447.706,388.797 445.706,390.963 443.5,393C 325.5,393.667 207.5,393.667 89.5,393C 87.2941,390.963 85.2941,388.797 83.5,386.5C 205.5,385.167 327.5,385.167 449.5,386.5 Z"/></g>
<g><path style="opacity:1" fill="#22614b" d="M 216.5,403.5 C 217.5,403.5 218.5,403.5 219.5,403.5C 219.177,410.022 219.51,416.355 220.5,422.5C 221.978,422.238 223.311,422.571 224.5,423.5C 220.5,424.833 216.5,424.833 212.5,423.5C 213.689,422.571 215.022,422.238 216.5,422.5C 216.5,416.833 216.5,411.167 216.5,405.5C 211.167,404.833 211.167,404.167 216.5,403.5 Z"/></g>
<g><path style="opacity:1" fill="#2b6651" d="M 278.5,402.5 C 285.213,401.379 288.88,404.212 289.5,411C 288.396,418.772 284.062,423.105 276.5,424C 280.785,422.553 283.452,419.719 284.5,415.5C 277.223,416.721 274.056,413.721 275,406.5C 275.69,404.65 276.856,403.316 278.5,402.5 Z"/></g>
<g><path style="opacity:1" fill="#eef3f1" d="M 280.5,403.5 C 281.822,403.33 282.989,403.663 284,404.5C 285.289,407.351 285.789,410.351 285.5,413.5C 277.036,413.479 275.369,410.146 280.5,403.5 Z"/></g>
<g><path style="opacity:1" fill="#6e998b" d="M 216.5,403.5 C 217.568,402.566 218.901,402.232 220.5,402.5C 220.5,409.167 220.5,415.833 220.5,422.5C 219.51,416.355 219.177,410.022 219.5,403.5C 218.5,403.5 217.5,403.5 216.5,403.5 Z"/></g>
<g><path style="opacity:1" fill="#23624c" d="M 246.5,402.5 C 253.493,400.996 256.327,403.663 255,410.5C 254.075,411.047 253.242,411.713 252.5,412.5C 256.252,414.829 257.418,418.163 256,422.5C 251.335,425.456 247.002,425.122 243,421.5C 242.333,420.167 242.333,418.833 243,417.5C 244.353,416.315 245.52,414.981 246.5,413.5C 242.512,409.798 242.512,406.131 246.5,402.5 Z"/></g>
<g><path style="opacity:1" fill="#e9efed" d="M 248.5,403.5 C 251.352,403.352 253.019,404.686 253.5,407.5C 252.339,411.722 250.172,412.388 247,409.5C 246.257,407.126 246.757,405.126 248.5,403.5 Z"/></g>
<g><path style="opacity:1" fill="#26634e" d="M 310.5,402.5 C 316.831,401.029 319.998,403.362 320,409.5C 318.833,410.667 317.667,411.833 316.5,413C 321.414,416.171 321.747,419.837 317.5,424C 313.882,424.966 310.549,424.466 307.5,422.5C 306.754,421.264 306.421,419.93 306.5,418.5C 309.388,418.22 310.888,419.553 311,422.5C 314.747,424.35 316.914,423.183 317.5,419C 317.036,414.922 314.703,412.922 310.5,413C 316.149,412.517 317.816,409.683 315.5,404.5C 314.833,404.167 314.167,403.833 313.5,403.5C 311.867,405.503 309.867,406.836 307.5,407.5C 307.31,405.041 308.31,403.374 310.5,402.5 Z"/></g>
<g><path style="opacity:1" fill="#ebf1ef" d="M 247.5,414.5 C 252.5,415.156 254.167,417.822 252.5,422.5C 245.411,423.615 243.744,420.948 247.5,414.5 Z"/></g>
<g><path style="opacity:1" fill="#eef3f1" d="M 359.5,434.5 C 362.808,433.974 364.974,435.307 366,438.5C 368.667,434.5 371.333,434.5 374,438.5C 371.941,442.035 370.775,446.035 370.5,450.5C 372.167,450.5 373.833,450.5 375.5,450.5C 375.716,454.487 375.049,458.32 373.5,462C 375.053,465.283 376.719,465.283 378.5,462C 379.635,461.251 380.635,461.417 381.5,462.5C 377.729,465.308 377.563,468.308 381,471.5C 381.495,473.473 381.662,475.473 381.5,477.5C 378.859,478.263 376.192,478.43 373.5,478C 376.789,476.041 377.123,473.875 374.5,471.5C 372.703,473.131 371.536,475.131 371,477.5C 369.989,478.337 368.822,478.67 367.5,478.5C 369.13,475.24 370.797,471.906 372.5,468.5C 369.215,465.532 368.881,462.365 371.5,459C 371.167,458.5 370.833,458 370.5,457.5C 367.4,463.264 364.566,469.264 362,475.5C 359.959,476.423 357.792,476.756 355.5,476.5C 356.608,472.869 358.774,469.869 362,467.5C 363.167,465.167 364.333,462.833 365.5,460.5C 364.675,459.614 363.675,459.281 362.5,459.5C 362.607,457.097 361.607,455.264 359.5,454C 361.612,453.094 362.445,451.594 362,449.5C 361,450.833 360,450.833 359,449.5C 358.338,447.187 357.838,444.854 357.5,442.5C 358.5,442.5 359.5,442.5 360.5,442.5C 360.167,439.833 359.833,437.167 359.5,434.5 Z"/></g>
<g><path style="opacity:1" fill="#f1f5f4" d="M 183.5,436.5 C 186.272,436.595 188.272,437.929 189.5,440.5C 186.433,444.909 183.767,449.576 181.5,454.5C 182.325,455.386 183.325,455.719 184.5,455.5C 184.5,456.5 184.5,457.5 184.5,458.5C 182.533,458.261 180.699,458.594 179,459.5C 176.686,464.009 176.186,468.676 177.5,473.5C 179.232,471.717 180.732,469.717 182,467.5C 182.692,468.025 183.192,468.692 183.5,469.5C 181.139,472.888 179.306,476.554 178,480.5C 176.736,482.607 174.903,483.607 172.5,483.5C 172.797,479.233 172.464,475.066 171.5,471C 164.879,471.816 158.212,472.649 151.5,473.5C 149.167,473.333 146.833,473.167 144.5,473C 142.675,471.534 142.175,469.701 143,467.5C 147.64,469.438 152.473,469.938 157.5,469C 161.037,468.855 164.371,468.022 167.5,466.5C 168.879,465.137 168.713,464.137 167,463.5C 164.953,464.609 162.787,465.276 160.5,465.5C 160.307,462.525 161.307,460.025 163.5,458C 160.167,457.667 156.833,457.333 153.5,457C 152.743,455.488 151.743,454.154 150.5,453C 159.46,453.547 168.46,453.547 177.5,453C 180.78,447.995 182.78,442.495 183.5,436.5 Z"/></g>
<g><path style="opacity:1" fill="#ebf1ef" d="M 166.5,446.5 C 170.167,446.5 173.833,446.5 177.5,446.5C 177.5,448.167 177.5,449.833 177.5,451.5C 174.482,451.665 171.482,451.498 168.5,451C 167.418,449.67 166.751,448.17 166.5,446.5 Z"/></g>
<g><path style="opacity:1" fill="#447967" d="M 365.5,446.5 C 367.973,446.947 368.14,447.947 366,449.5C 365.517,448.552 365.351,447.552 365.5,446.5 Z"/></g>
<g><path style="opacity:1" fill="#e4ece9" d="M 190.5,449.5 C 194.146,450.462 195.313,452.795 194,456.5C 192.556,458.155 190.722,458.822 188.5,458.5C 189.92,455.739 190.587,452.739 190.5,449.5 Z"/></g>
<g><path style="opacity:1" fill="#ebf0ee" d="M 352.5,454.5 C 354.722,454.178 356.556,454.845 358,456.5C 357.799,459.777 357.632,463.111 357.5,466.5C 354.477,466.895 353.477,465.895 354.5,463.5C 353.167,461.833 351.833,460.167 350.5,458.5C 351.63,457.378 352.297,456.044 352.5,454.5 Z"/></g>
<g><path style="opacity:1" fill="#e8eeec" d="M 227.5,457.5 C 230.287,458.378 231.62,460.378 231.5,463.5C 231.054,466.293 229.721,468.627 227.5,470.5C 226.912,466.226 226.912,461.892 227.5,457.5 Z"/></g>
<g><path style="opacity:1" fill="#eef3f1" d="M 253.5,456.5 C 256.244,457.072 257.077,458.738 256,461.5C 253.447,463.716 251.28,466.216 249.5,469C 250.833,470.333 252.167,471.667 253.5,473C 252.711,474.626 251.711,476.126 250.5,477.5C 251.428,478.768 251.595,480.101 251,481.5C 249.38,483.241 247.88,485.075 246.5,487C 248.379,486.595 250.213,485.762 252,484.5C 256.378,485.197 256.545,486.697 252.5,489C 250.196,489.895 247.862,490.729 245.5,491.5C 244.395,495.125 242.061,496.959 238.5,497C 241.948,494.45 241.948,492.283 238.5,490.5C 240.435,489.932 241.768,488.765 242.5,487C 242.167,486.5 241.833,486 241.5,485.5C 234.807,486.78 233.973,485.113 239,480.5C 239.667,478.5 239.667,476.5 239,474.5C 234.294,471.791 234.794,469.958 240.5,469C 242.628,467.333 243.961,465.166 244.5,462.5C 246.603,464.88 247.77,464.213 248,460.5C 248.837,462.007 250.004,462.507 251.5,462C 252.244,460.185 252.911,458.352 253.5,456.5 Z"/></g>
<g><path style="opacity:1" fill="#26644e" d="M 165.5,457.5 C 167.167,457.5 168.833,457.5 170.5,457.5C 169.173,462.7 167.507,462.7 165.5,457.5 Z"/></g>
<g><path style="opacity:1" fill="#3b725e" d="M 173.5,457.5 C 175.81,459.278 175.644,461.278 173,463.5C 172.322,461.402 172.489,459.402 173.5,457.5 Z"/></g>
<g><path style="opacity:1" fill="#eef3f1" d="M 155.5,461.5 C 156.451,462.919 156.784,464.585 156.5,466.5C 154.5,466.5 152.5,466.5 150.5,466.5C 150.5,465.5 150.5,464.5 150.5,463.5C 152.553,463.598 154.22,462.931 155.5,461.5 Z"/></g>
<g><path style="opacity:1" fill="#edf2f0" d="M 304.5,464.5 C 306.441,464.869 308.275,465.536 310,466.5C 309.502,468.527 309.669,470.527 310.5,472.5C 312.071,471.691 313.738,471.357 315.5,471.5C 314.805,473.978 313.305,475.978 311,477.5C 310.517,478.448 310.351,479.448 310.5,480.5C 313.187,480.336 315.854,480.503 318.5,481C 321.34,483.933 320.674,485.766 316.5,486.5C 315.014,485.186 313.347,484.186 311.5,483.5C 309.161,485.647 307.161,488.147 305.5,491C 304.056,491.781 302.723,491.614 301.5,490.5C 303.382,487.787 305.049,484.953 306.5,482C 306.167,481.5 305.833,481 305.5,480.5C 304.126,481.711 302.626,482.711 301,483.5C 299.72,483.387 298.887,482.72 298.5,481.5C 300.988,479.931 303.488,478.264 306,476.5C 306.325,472.358 305.825,468.358 304.5,464.5 Z"/></g>
<g><path style="opacity:1" fill="#39725f" d="M 241.5,471.5 C 242.675,471.281 243.675,471.614 244.5,472.5C 242.948,473.798 241.948,473.465 241.5,471.5 Z"/></g>
<g><path style="opacity:1" fill="#f2f5f4" d="M 225.5,473.5 C 228.624,473.943 230.957,475.61 232.5,478.5C 228.053,485.842 225.386,493.842 224.5,502.5C 221.459,502.621 219.792,501.121 219.5,498C 222.582,490.086 224.582,481.919 225.5,473.5 Z"/></g>
<g><path style="opacity:1" fill="#e6edeb" d="M 248.5,491.5 C 251.662,493.649 252.996,496.482 252.5,500C 250.365,500.635 248.365,500.301 246.5,499C 247.574,498.261 248.241,497.261 248.5,496C 247.278,494.437 247.278,492.937 248.5,491.5 Z"/></g>
</svg>
